<?xml version="1.0" encoding="UTF-8" standalone="no"?>
<!DOCTYPE svg PUBLIC "-//W3C//DTD SVG 1.1//EN"
 "http://www.w3.org/Graphics/SVG/1.1/DTD/svg11.dtd">
<!-- Generated by graphviz version 2.43.0 (0)
 -->
<!-- Title: %3 Pages: 1 -->
<svg width="1916pt" height="476pt"
 viewBox="0.00 0.00 1916.17 476.00" xmlns="http://www.w3.org/2000/svg" xmlns:xlink="http://www.w3.org/1999/xlink">
<g id="graph0" class="graph" transform="scale(1 1) rotate(0) translate(4 472)">
<title>%3</title>
<polygon fill="white" stroke="transparent" points="-4,4 -4,-472 1912.17,-472 1912.17,4 -4,4"/>
<!-- [root] aws_cloudwatch_metric_alarm.unavailable (expand) -->
<g id="node1" class="node">
<title>[root] aws_cloudwatch_metric_alarm.unavailable (expand)</title>
<polygon fill="none" stroke="black" points="1558,-324 1305,-324 1305,-288 1558,-288 1558,-324"/>
<text text-anchor="middle" x="1431.5" y="-302.3" font-family="Times,serif" font-size="14.00">aws_cloudwatch_metric_alarm.unavailable</text>
</g>
<!-- [root] provider[&quot;registry.terraform.io/hashicorp/aws&quot;] -->
<g id="node9" class="node">
<title>[root] provider[&quot;registry.terraform.io/hashicorp/aws&quot;]</title>
<polygon fill="none" stroke="black" points="1121.5,-36 868.96,-18 1121.5,0 1374.04,-18 1121.5,-36"/>
<text text-anchor="middle" x="1121.5" y="-14.3" font-family="Times,serif" font-size="14.00">provider[&quot;registry.terraform.io/hashicorp/aws&quot;]</text>
</g>
<!-- [root] aws_cloudwatch_metric_alarm.unavailable (expand)&#45;&gt;[root] provider[&quot;registry.terraform.io/hashicorp/aws&quot;] -->
<g id="edge1" class="edge">
<title>[root] aws_cloudwatch_metric_alarm.unavailable (expand)&#45;&gt;[root] provider[&quot;registry.terraform.io/hashicorp/aws&quot;]</title>
<path fill="none" stroke="black" d="M1304.79,-293.08C1214.81,-283.29 1107.54,-268.42 1093.5,-252 1041.5,-191.21 1074.25,-149.65 1093.5,-72 1095.89,-62.36 1100.39,-52.54 1105.1,-44.01"/>
<polygon fill="black" stroke="black" points="1108.15,-45.73 1110.19,-35.34 1102.11,-42.18 1108.15,-45.73"/>
</g>
<!-- [root] var.alarm_name -->
<g id="node10" class="node">
<title>[root] var.alarm_name</title>
<polygon fill="none" stroke="black" points="1202,-252 1103,-252 1103,-216 1208,-216 1208,-246 1202,-252"/>
<polyline fill="none" stroke="black" points="1202,-252 1202,-246 "/>
<polyline fill="none" stroke="black" points="1208,-246 1202,-246 "/>
<text text-anchor="middle" x="1155.5" y="-230.3" font-family="Times,serif" font-size="14.00">var.alarm_name</text>
</g>
<!-- [root] aws_cloudwatch_metric_alarm.unavailable (expand)&#45;&gt;[root] var.alarm_name -->
<g id="edge2" class="edge">
<title>[root] aws_cloudwatch_metric_alarm.unavailable (expand)&#45;&gt;[root] var.alarm_name</title>
<path fill="none" stroke="black" d="M1360.54,-287.89C1321.27,-278.32 1271.35,-265.96 1218.2,-252.15"/>
<polygon fill="black" stroke="black" points="1218.8,-248.69 1208.24,-249.56 1217.04,-255.47 1218.8,-248.69"/>
</g>
<!-- [root] var.alarm_unavailable_period -->
<g id="node11" class="node">
<title>[root] var.alarm_unavailable_period</title>
<polygon fill="none" stroke="black" points="1399,-252 1226,-252 1226,-216 1405,-216 1405,-246 1399,-252"/>
<polyline fill="none" stroke="black" points="1399,-252 1399,-246 "/>
<polyline fill="none" stroke="black" points="1405,-246 1399,-246 "/>
<text text-anchor="middle" x="1315.5" y="-230.3" font-family="Times,serif" font-size="14.00">var.alarm_unavailable_period</text>
</g>
<!-- [root] aws_cloudwatch_metric_alarm.unavailable (expand)&#45;&gt;[root] var.alarm_unavailable_period -->
<g id="edge3" class="edge">
<title>[root] aws_cloudwatch_metric_alarm.unavailable (expand)&#45;&gt;[root] var.alarm_unavailable_period</title>
<path fill="none" stroke="black" d="M1403.12,-287.88C1387.96,-278.72 1369.09,-267.34 1352.76,-257.48"/>
<polygon fill="black" stroke="black" points="1354.36,-254.36 1343.99,-252.19 1350.74,-260.35 1354.36,-254.36"/>
</g>
<!-- [root] var.comparison_operator -->
<g id="node13" class="node">
<title>[root] var.comparison_operator</title>
<polygon fill="none" stroke="black" points="1569.5,-252 1423.5,-252 1423.5,-216 1575.5,-216 1575.5,-246 1569.5,-252"/>
<polyline fill="none" stroke="black" points="1569.5,-252 1569.5,-246 "/>
<polyline fill="none" stroke="black" points="1575.5,-246 1569.5,-246 "/>
<text text-anchor="middle" x="1499.5" y="-230.3" font-family="Times,serif" font-size="14.00">var.comparison_operator</text>
</g>
<!-- [root] aws_cloudwatch_metric_alarm.unavailable (expand)&#45;&gt;[root] var.comparison_operator -->
<g id="edge4" class="edge">
<title>[root] aws_cloudwatch_metric_alarm.unavailable (expand)&#45;&gt;[root] var.comparison_operator</title>
<path fill="none" stroke="black" d="M1448.31,-287.7C1456.63,-279.14 1466.81,-268.66 1475.89,-259.3"/>
<polygon fill="black" stroke="black" points="1478.43,-261.72 1482.88,-252.1 1473.41,-256.84 1478.43,-261.72"/>
</g>
<!-- [root] var.evaluation_periods -->
<g id="node18" class="node">
<title>[root] var.evaluation_periods</title>
<polygon fill="none" stroke="black" points="1727.5,-252 1593.5,-252 1593.5,-216 1733.5,-216 1733.5,-246 1727.5,-252"/>
<polyline fill="none" stroke="black" points="1727.5,-252 1727.5,-246 "/>
<polyline fill="none" stroke="black" points="1733.5,-246 1727.5,-246 "/>
<text text-anchor="middle" x="1663.5" y="-230.3" font-family="Times,serif" font-size="14.00">var.evaluation_periods</text>
</g>
<!-- [root] aws_cloudwatch_metric_alarm.unavailable (expand)&#45;&gt;[root] var.evaluation_periods -->
<g id="edge5" class="edge">
<title>[root] aws_cloudwatch_metric_alarm.unavailable (expand)&#45;&gt;[root] var.evaluation_periods</title>
<path fill="none" stroke="black" d="M1487.96,-287.97C1520.8,-278.06 1562.37,-265.51 1596.81,-255.12"/>
<polygon fill="black" stroke="black" points="1598.23,-258.35 1606.79,-252.11 1596.21,-251.65 1598.23,-258.35"/>
</g>
<!-- [root] var.treat_missing_data -->
<g id="node23" class="node">
<title>[root] var.treat_missing_data</title>
<polygon fill="none" stroke="black" points="1885.5,-252 1751.5,-252 1751.5,-216 1891.5,-216 1891.5,-246 1885.5,-252"/>
<polyline fill="none" stroke="black" points="1885.5,-252 1885.5,-246 "/>
<polyline fill="none" stroke="black" points="1891.5,-246 1885.5,-246 "/>
<text text-anchor="middle" x="1821.5" y="-230.3" font-family="Times,serif" font-size="14.00">var.treat_missing_data</text>
</g>
<!-- [root] aws_cloudwatch_metric_alarm.unavailable (expand)&#45;&gt;[root] var.treat_missing_data -->
<g id="edge6" class="edge">
<title>[root] aws_cloudwatch_metric_alarm.unavailable (expand)&#45;&gt;[root] var.treat_missing_data</title>
<path fill="none" stroke="black" d="M1538.22,-287.98C1595.75,-278.53 1668.2,-266.17 1741.45,-252.16"/>
<polygon fill="black" stroke="black" points="1742.16,-255.59 1751.32,-250.27 1740.84,-248.72 1742.16,-255.59"/>
</g>
<!-- [root] aws_elasticsearch_domain.es (expand) -->
<g id="node2" class="node">
<title>[root] aws_elasticsearch_domain.es (expand)</title>
<polygon fill="none" stroke="black" points="751.5,-252 575.5,-252 575.5,-216 751.5,-216 751.5,-252"/>
<text text-anchor="middle" x="663.5" y="-230.3" font-family="Times,serif" font-size="14.00">aws_elasticsearch_domain.es</text>
</g>
<!-- [root] aws_subnet.subnet_for_es (expand) -->
<g id="node6" class="node">
<title>[root] aws_subnet.subnet_for_es (expand)</title>
<polygon fill="none" stroke="black" points="255,-180 96,-180 96,-144 255,-144 255,-180"/>
<text text-anchor="middle" x="175.5" y="-158.3" font-family="Times,serif" font-size="14.00">aws_subnet.subnet_for_es</text>
</g>
<!-- [root] aws_elasticsearch_domain.es (expand)&#45;&gt;[root] aws_subnet.subnet_for_es (expand) -->
<g id="edge7" class="edge">
<title>[root] aws_elasticsearch_domain.es (expand)&#45;&gt;[root] aws_subnet.subnet_for_es (expand)</title>
<path fill="none" stroke="black" d="M575.33,-222.74C496.63,-213.25 378.03,-198.13 264.91,-180.02"/>
<polygon fill="black" stroke="black" points="265.47,-176.56 255.04,-178.42 264.35,-183.47 265.47,-176.56"/>
</g>
<!-- [root] var.domain -->
<g id="node14" class="node">
<title>[root] var.domain</title>
<polygon fill="none" stroke="black" points="345.5,-180 273.5,-180 273.5,-144 351.5,-144 351.5,-174 345.5,-180"/>
<polyline fill="none" stroke="black" points="345.5,-180 345.5,-174 "/>
<polyline fill="none" stroke="black" points="351.5,-174 345.5,-174 "/>
<text text-anchor="middle" x="312.5" y="-158.3" font-family="Times,serif" font-size="14.00">var.domain</text>
</g>
<!-- [root] aws_elasticsearch_domain.es (expand)&#45;&gt;[root] var.domain -->
<g id="edge8" class="edge">
<title>[root] aws_elasticsearch_domain.es (expand)&#45;&gt;[root] var.domain</title>
<path fill="none" stroke="black" d="M575.48,-221.58C517.06,-213.07 438.65,-199.89 361.51,-180.04"/>
<polygon fill="black" stroke="black" points="362.19,-176.6 351.63,-177.46 360.42,-183.37 362.19,-176.6"/>
</g>
<!-- [root] var.ebs_volume_size -->
<g id="node15" class="node">
<title>[root] var.ebs_volume_size</title>
<polygon fill="none" stroke="black" points="495,-180 370,-180 370,-144 501,-144 501,-174 495,-180"/>
<polyline fill="none" stroke="black" points="495,-180 495,-174 "/>
<polyline fill="none" stroke="black" points="501,-174 495,-174 "/>
<text text-anchor="middle" x="435.5" y="-158.3" font-family="Times,serif" font-size="14.00">var.ebs_volume_size</text>
</g>
<!-- [root] aws_elasticsearch_domain.es (expand)&#45;&gt;[root] var.ebs_volume_size -->
<g id="edge9" class="edge">
<title>[root] aws_elasticsearch_domain.es (expand)&#45;&gt;[root] var.ebs_volume_size</title>
<path fill="none" stroke="black" d="M608.02,-215.97C575.74,-206.06 534.89,-193.51 501.04,-183.12"/>
<polygon fill="black" stroke="black" points="501.82,-179.7 491.23,-180.11 499.76,-186.39 501.82,-179.7"/>
</g>
<!-- [root] var.elasticsearch_version -->
<g id="node16" class="node">
<title>[root] var.elasticsearch_version</title>
<polygon fill="none" stroke="black" points="665.5,-180 519.5,-180 519.5,-144 671.5,-144 671.5,-174 665.5,-180"/>
<polyline fill="none" stroke="black" points="665.5,-180 665.5,-174 "/>
<polyline fill="none" stroke="black" points="671.5,-174 665.5,-174 "/>
<text text-anchor="middle" x="595.5" y="-158.3" font-family="Times,serif" font-size="14.00">var.elasticsearch_version</text>
</g>
<!-- [root] aws_elasticsearch_domain.es (expand)&#45;&gt;[root] var.elasticsearch_version -->
<g id="edge10" class="edge">
<title>[root] aws_elasticsearch_domain.es (expand)&#45;&gt;[root] var.elasticsearch_version</title>
<path fill="none" stroke="black" d="M646.69,-215.7C638.37,-207.14 628.19,-196.66 619.11,-187.3"/>
<polygon fill="black" stroke="black" points="621.59,-184.84 612.12,-180.1 616.57,-189.72 621.59,-184.84"/>
</g>
<!-- [root] var.instance_type -->
<g id="node19" class="node">
<title>[root] var.instance_type</title>
<polygon fill="none" stroke="black" points="795,-180 690,-180 690,-144 801,-144 801,-174 795,-180"/>
<polyline fill="none" stroke="black" points="795,-180 795,-174 "/>
<polyline fill="none" stroke="black" points="801,-174 795,-174 "/>
<text text-anchor="middle" x="745.5" y="-158.3" font-family="Times,serif" font-size="14.00">var.instance_type</text>
</g>
<!-- [root] aws_elasticsearch_domain.es (expand)&#45;&gt;[root] var.instance_type -->
<g id="edge11" class="edge">
<title>[root] aws_elasticsearch_domain.es (expand)&#45;&gt;[root] var.instance_type</title>
<path fill="none" stroke="black" d="M683.77,-215.7C694,-206.97 706.56,-196.24 717.68,-186.75"/>
<polygon fill="black" stroke="black" points="720.13,-189.26 725.46,-180.1 715.59,-183.94 720.13,-189.26"/>
</g>
<!-- [root] var.tag_domain -->
<g id="node22" class="node">
<title>[root] var.tag_domain</title>
<polygon fill="none" stroke="black" points="914,-180 819,-180 819,-144 920,-144 920,-174 914,-180"/>
<polyline fill="none" stroke="black" points="914,-180 914,-174 "/>
<polyline fill="none" stroke="black" points="920,-174 914,-174 "/>
<text text-anchor="middle" x="869.5" y="-158.3" font-family="Times,serif" font-size="14.00">var.tag_domain</text>
</g>
<!-- [root] aws_elasticsearch_domain.es (expand)&#45;&gt;[root] var.tag_domain -->
<g id="edge12" class="edge">
<title>[root] aws_elasticsearch_domain.es (expand)&#45;&gt;[root] var.tag_domain</title>
<path fill="none" stroke="black" d="M713.63,-215.97C742.54,-206.14 779.07,-193.73 809.5,-183.39"/>
<polygon fill="black" stroke="black" points="810.8,-186.64 819.15,-180.11 808.55,-180.01 810.8,-186.64"/>
</g>
<!-- [root] var.volume_type -->
<g id="node24" class="node">
<title>[root] var.volume_type</title>
<polygon fill="none" stroke="black" points="1040.5,-180 938.5,-180 938.5,-144 1046.5,-144 1046.5,-174 1040.5,-180"/>
<polyline fill="none" stroke="black" points="1040.5,-180 1040.5,-174 "/>
<polyline fill="none" stroke="black" points="1046.5,-174 1040.5,-174 "/>
<text text-anchor="middle" x="992.5" y="-158.3" font-family="Times,serif" font-size="14.00">var.volume_type</text>
</g>
<!-- [root] aws_elasticsearch_domain.es (expand)&#45;&gt;[root] var.volume_type -->
<g id="edge13" class="edge">
<title>[root] aws_elasticsearch_domain.es (expand)&#45;&gt;[root] var.volume_type</title>
<path fill="none" stroke="black" d="M751.53,-216.82C803.24,-206.96 869.78,-193.66 928.5,-180 928.6,-179.98 928.7,-179.95 928.8,-179.93"/>
<polygon fill="black" stroke="black" points="929.53,-183.35 938.44,-177.61 927.9,-176.55 929.53,-183.35"/>
</g>
<!-- [root] aws_elasticsearch_domain_policy.main (expand) -->
<g id="node3" class="node">
<title>[root] aws_elasticsearch_domain_policy.main (expand)</title>
<polygon fill="none" stroke="black" points="1221,-324 988,-324 988,-288 1221,-288 1221,-324"/>
<text text-anchor="middle" x="1104.5" y="-302.3" font-family="Times,serif" font-size="14.00">aws_elasticsearch_domain_policy.main</text>
</g>
<!-- [root] aws_elasticsearch_domain_policy.main (expand)&#45;&gt;[root] aws_elasticsearch_domain.es (expand) -->
<g id="edge14" class="edge">
<title>[root] aws_elasticsearch_domain_policy.main (expand)&#45;&gt;[root] aws_elasticsearch_domain.es (expand)</title>
<path fill="none" stroke="black" d="M997.18,-287.97C925.38,-276.57 831.6,-261.68 761.75,-250.59"/>
<polygon fill="black" stroke="black" points="762.05,-247.1 751.62,-248.99 760.95,-254.01 762.05,-247.1"/>
</g>
<!-- [root] aws_sns_topic.sns_topic (expand) -->
<g id="node4" class="node">
<title>[root] aws_sns_topic.sns_topic (expand)</title>
<polygon fill="none" stroke="black" points="1558.5,-108 1408.5,-108 1408.5,-72 1558.5,-72 1558.5,-108"/>
<text text-anchor="middle" x="1483.5" y="-86.3" font-family="Times,serif" font-size="14.00">aws_sns_topic.sns_topic</text>
</g>
<!-- [root] aws_sns_topic.sns_topic (expand)&#45;&gt;[root] provider[&quot;registry.terraform.io/hashicorp/aws&quot;] -->
<g id="edge15" class="edge">
<title>[root] aws_sns_topic.sns_topic (expand)&#45;&gt;[root] provider[&quot;registry.terraform.io/hashicorp/aws&quot;]</title>
<path fill="none" stroke="black" d="M1408.4,-73.76C1405.4,-73.16 1402.42,-72.57 1399.5,-72 1331.05,-58.55 1253.02,-43.72 1197.09,-33.17"/>
<polygon fill="black" stroke="black" points="1197.73,-29.73 1187.26,-31.32 1196.44,-36.61 1197.73,-29.73"/>
</g>
<!-- [root] var.sns_name -->
<g id="node20" class="node">
<title>[root] var.sns_name</title>
<polygon fill="none" stroke="black" points="1523,-36 1438,-36 1438,0 1529,0 1529,-30 1523,-36"/>
<polyline fill="none" stroke="black" points="1523,-36 1523,-30 "/>
<polyline fill="none" stroke="black" points="1529,-30 1523,-30 "/>
<text text-anchor="middle" x="1483.5" y="-14.3" font-family="Times,serif" font-size="14.00">var.sns_name</text>
</g>
<!-- [root] aws_sns_topic.sns_topic (expand)&#45;&gt;[root] var.sns_name -->
<g id="edge16" class="edge">
<title>[root] aws_sns_topic.sns_topic (expand)&#45;&gt;[root] var.sns_name</title>
<path fill="none" stroke="black" d="M1483.5,-71.7C1483.5,-63.98 1483.5,-54.71 1483.5,-46.11"/>
<polygon fill="black" stroke="black" points="1487,-46.1 1483.5,-36.1 1480,-46.1 1487,-46.1"/>
</g>
<!-- [root] aws_sns_topic_policy.default (expand) -->
<g id="node5" class="node">
<title>[root] aws_sns_topic_policy.default (expand)</title>
<polygon fill="none" stroke="black" points="1571.5,-180 1395.5,-180 1395.5,-144 1571.5,-144 1571.5,-180"/>
<text text-anchor="middle" x="1483.5" y="-158.3" font-family="Times,serif" font-size="14.00">aws_sns_topic_policy.default</text>
</g>
<!-- [root] aws_sns_topic_policy.default (expand)&#45;&gt;[root] aws_sns_topic.sns_topic (expand) -->
<g id="edge17" class="edge">
<title>[root] aws_sns_topic_policy.default (expand)&#45;&gt;[root] aws_sns_topic.sns_topic (expand)</title>
<path fill="none" stroke="black" d="M1483.5,-143.7C1483.5,-135.98 1483.5,-126.71 1483.5,-118.11"/>
<polygon fill="black" stroke="black" points="1487,-118.1 1483.5,-108.1 1480,-118.1 1487,-118.1"/>
</g>
<!-- [root] data.aws_iam_policy_document.sns_topic_policy (expand) -->
<g id="node8" class="node">
<title>[root] data.aws_iam_policy_document.sns_topic_policy (expand)</title>
<polygon fill="none" stroke="black" points="1390.5,-108 1102.5,-108 1102.5,-72 1390.5,-72 1390.5,-108"/>
<text text-anchor="middle" x="1246.5" y="-86.3" font-family="Times,serif" font-size="14.00">data.aws_iam_policy_document.sns_topic_policy</text>
</g>
<!-- [root] aws_sns_topic_policy.default (expand)&#45;&gt;[root] data.aws_iam_policy_document.sns_topic_policy (expand) -->
<g id="edge18" class="edge">
<title>[root] aws_sns_topic_policy.default (expand)&#45;&gt;[root] data.aws_iam_policy_document.sns_topic_policy (expand)</title>
<path fill="none" stroke="black" d="M1425.83,-143.97C1392.14,-134.01 1349.45,-121.41 1314.17,-110.99"/>
<polygon fill="black" stroke="black" points="1315.01,-107.59 1304.43,-108.11 1313.03,-114.3 1315.01,-107.59"/>
</g>
<!-- [root] aws_vpc.vpc_for_es (expand) -->
<g id="node7" class="node">
<title>[root] aws_vpc.vpc_for_es (expand)</title>
<polygon fill="none" stroke="black" points="174.5,-108 46.5,-108 46.5,-72 174.5,-72 174.5,-108"/>
<text text-anchor="middle" x="110.5" y="-86.3" font-family="Times,serif" font-size="14.00">aws_vpc.vpc_for_es</text>
</g>
<!-- [root] aws_subnet.subnet_for_es (expand)&#45;&gt;[root] aws_vpc.vpc_for_es (expand) -->
<g id="edge19" class="edge">
<title>[root] aws_subnet.subnet_for_es (expand)&#45;&gt;[root] aws_vpc.vpc_for_es (expand)</title>
<path fill="none" stroke="black" d="M159.43,-143.7C151.56,-135.22 141.94,-124.86 133.33,-115.58"/>
<polygon fill="black" stroke="black" points="135.75,-113.05 126.38,-108.1 130.62,-117.81 135.75,-113.05"/>
</g>
<!-- [root] var.avail_zone -->
<g id="node12" class="node">
<title>[root] var.avail_zone</title>
<polygon fill="none" stroke="black" points="282,-108 193,-108 193,-72 288,-72 288,-102 282,-108"/>
<polyline fill="none" stroke="black" points="282,-108 282,-102 "/>
<polyline fill="none" stroke="black" points="288,-102 282,-102 "/>
<text text-anchor="middle" x="240.5" y="-86.3" font-family="Times,serif" font-size="14.00">var.avail_zone</text>
</g>
<!-- [root] aws_subnet.subnet_for_es (expand)&#45;&gt;[root] var.avail_zone -->
<g id="edge20" class="edge">
<title>[root] aws_subnet.subnet_for_es (expand)&#45;&gt;[root] var.avail_zone</title>
<path fill="none" stroke="black" d="M191.57,-143.7C199.44,-135.22 209.06,-124.86 217.67,-115.58"/>
<polygon fill="black" stroke="black" points="220.38,-117.81 224.62,-108.1 215.25,-113.05 220.38,-117.81"/>
</g>
<!-- [root] var.subnet_cidr_block -->
<g id="node21" class="node">
<title>[root] var.subnet_cidr_block</title>
<polygon fill="none" stroke="black" points="437,-108 306,-108 306,-72 443,-72 443,-102 437,-108"/>
<polyline fill="none" stroke="black" points="437,-108 437,-102 "/>
<polyline fill="none" stroke="black" points="443,-102 437,-102 "/>
<text text-anchor="middle" x="374.5" y="-86.3" font-family="Times,serif" font-size="14.00">var.subnet_cidr_block</text>
</g>
<!-- [root] aws_subnet.subnet_for_es (expand)&#45;&gt;[root] var.subnet_cidr_block -->
<g id="edge21" class="edge">
<title>[root] aws_subnet.subnet_for_es (expand)&#45;&gt;[root] var.subnet_cidr_block</title>
<path fill="none" stroke="black" d="M223.93,-143.97C251.73,-134.19 286.84,-121.84 316.15,-111.52"/>
<polygon fill="black" stroke="black" points="317.58,-114.73 325.86,-108.11 315.26,-108.13 317.58,-114.73"/>
</g>
<!-- [root] aws_vpc.vpc_for_es (expand)&#45;&gt;[root] provider[&quot;registry.terraform.io/hashicorp/aws&quot;] -->
<g id="edge22" class="edge">
<title>[root] aws_vpc.vpc_for_es (expand)&#45;&gt;[root] provider[&quot;registry.terraform.io/hashicorp/aws&quot;]</title>
<path fill="none" stroke="black" d="M174.87,-73.38C177.78,-72.87 180.67,-72.41 183.5,-72 425.19,-37.29 704.95,-25.05 895.63,-20.87"/>
<polygon fill="black" stroke="black" points="895.85,-24.37 905.78,-20.66 895.7,-17.37 895.85,-24.37"/>
</g>
<!-- [root] var.env_prefix -->
<g id="node17" class="node">
<title>[root] var.env_prefix</title>
<polygon fill="none" stroke="black" points="89,-36 0,-36 0,0 95,0 95,-30 89,-36"/>
<polyline fill="none" stroke="black" points="89,-36 89,-30 "/>
<polyline fill="none" stroke="black" points="95,-30 89,-30 "/>
<text text-anchor="middle" x="47.5" y="-14.3" font-family="Times,serif" font-size="14.00">var.env_prefix</text>
</g>
<!-- [root] aws_vpc.vpc_for_es (expand)&#45;&gt;[root] var.env_prefix -->
<g id="edge23" class="edge">
<title>[root] aws_vpc.vpc_for_es (expand)&#45;&gt;[root] var.env_prefix</title>
<path fill="none" stroke="black" d="M94.93,-71.7C87.3,-63.22 77.98,-52.86 69.62,-43.58"/>
<polygon fill="black" stroke="black" points="72.19,-41.2 62.89,-36.1 66.98,-45.88 72.19,-41.2"/>
</g>
<!-- [root] var.vpc_cidr_block -->
<g id="node25" class="node">
<title>[root] var.vpc_cidr_block</title>
<polygon fill="none" stroke="black" points="228,-36 113,-36 113,0 234,0 234,-30 228,-36"/>
<polyline fill="none" stroke="black" points="228,-36 228,-30 "/>
<polyline fill="none" stroke="black" points="234,-30 228,-30 "/>
<text text-anchor="middle" x="173.5" y="-14.3" font-family="Times,serif" font-size="14.00">var.vpc_cidr_block</text>
</g>
<!-- [root] aws_vpc.vpc_for_es (expand)&#45;&gt;[root] var.vpc_cidr_block -->
<g id="edge24" class="edge">
<title>[root] aws_vpc.vpc_for_es (expand)&#45;&gt;[root] var.vpc_cidr_block</title>
<path fill="none" stroke="black" d="M126.07,-71.7C133.7,-63.22 143.02,-52.86 151.38,-43.58"/>
<polygon fill="black" stroke="black" points="154.02,-45.88 158.11,-36.1 148.81,-41.2 154.02,-45.88"/>
</g>
<!-- [root] data.aws_iam_policy_document.sns_topic_policy (expand)&#45;&gt;[root] provider[&quot;registry.terraform.io/hashicorp/aws&quot;] -->
<g id="edge25" class="edge">
<title>[root] data.aws_iam_policy_document.sns_topic_policy (expand)&#45;&gt;[root] provider[&quot;registry.terraform.io/hashicorp/aws&quot;]</title>
<path fill="none" stroke="black" d="M1215.92,-71.88C1198.28,-62 1176,-49.52 1157.52,-39.17"/>
<polygon fill="black" stroke="black" points="1159.22,-36.11 1148.78,-34.28 1155.8,-42.22 1159.22,-36.11"/>
</g>
<!-- [root] output.arn (expand) -->
<g id="node26" class="node">
<title>[root] output.arn (expand)</title>
<ellipse fill="none" stroke="black" cx="254.5" cy="-306" rx="102.88" ry="18"/>
<text text-anchor="middle" x="254.5" y="-302.3" font-family="Times,serif" font-size="14.00">[root] output.arn (expand)</text>
</g>
<!-- [root] output.arn (expand)&#45;&gt;[root] aws_elasticsearch_domain.es (expand) -->
<g id="edge26" class="edge">
<title>[root] output.arn (expand)&#45;&gt;[root] aws_elasticsearch_domain.es (expand)</title>
<path fill="none" stroke="black" d="M325.28,-292.89C391.55,-281.54 491.19,-264.49 565.17,-251.83"/>
<polygon fill="black" stroke="black" points="566.17,-255.21 575.44,-250.07 564.99,-248.31 566.17,-255.21"/>
</g>
<!-- [root] output.domain_id (expand) -->
<g id="node27" class="node">
<title>[root] output.domain_id (expand)</title>
<ellipse fill="none" stroke="black" cx="505.5" cy="-306" rx="129.98" ry="18"/>
<text text-anchor="middle" x="505.5" y="-302.3" font-family="Times,serif" font-size="14.00">[root] output.domain_id (expand)</text>
</g>
<!-- [root] output.domain_id (expand)&#45;&gt;[root] aws_elasticsearch_domain.es (expand) -->
<g id="edge27" class="edge">
<title>[root] output.domain_id (expand)&#45;&gt;[root] aws_elasticsearch_domain.es (expand)</title>
<path fill="none" stroke="black" d="M542.54,-288.59C564.35,-278.93 592.16,-266.61 615.62,-256.21"/>
<polygon fill="black" stroke="black" points="617.31,-259.29 625.04,-252.04 614.48,-252.89 617.31,-259.29"/>
</g>
<!-- [root] output.domain_name (expand) -->
<g id="node28" class="node">
<title>[root] output.domain_name (expand)</title>
<ellipse fill="none" stroke="black" cx="462.5" cy="-378" rx="142.17" ry="18"/>
<text text-anchor="middle" x="462.5" y="-374.3" font-family="Times,serif" font-size="14.00">[root] output.domain_name (expand)</text>
</g>
<!-- [root] output.domain_name (expand)&#45;&gt;[root] aws_elasticsearch_domain.es (expand) -->
<g id="edge28" class="edge">
<title>[root] output.domain_name (expand)&#45;&gt;[root] aws_elasticsearch_domain.es (expand)</title>
<path fill="none" stroke="black" d="M568.82,-366.02C596.8,-358.25 624.67,-345.33 644.5,-324 659.84,-307.5 663.98,-281.77 664.65,-262.21"/>
<polygon fill="black" stroke="black" points="668.15,-262.09 664.71,-252.07 661.15,-262.05 668.15,-262.09"/>
</g>
<!-- [root] output.endpoint (expand) -->
<g id="node29" class="node">
<title>[root] output.endpoint (expand)</title>
<ellipse fill="none" stroke="black" cx="745.5" cy="-378" rx="122.38" ry="18"/>
<text text-anchor="middle" x="745.5" y="-374.3" font-family="Times,serif" font-size="14.00">[root] output.endpoint (expand)</text>
</g>
<!-- [root] output.endpoint (expand)&#45;&gt;[root] aws_elasticsearch_domain.es (expand) -->
<g id="edge29" class="edge">
<title>[root] output.endpoint (expand)&#45;&gt;[root] aws_elasticsearch_domain.es (expand)</title>
<path fill="none" stroke="black" d="M735.61,-359.87C721.39,-335.24 695.05,-289.64 678.45,-260.88"/>
<polygon fill="black" stroke="black" points="681.46,-259.1 673.43,-252.19 675.4,-262.6 681.46,-259.1"/>
</g>
<!-- [root] output.kibana_endpoint (expand) -->
<g id="node30" class="node">
<title>[root] output.kibana_endpoint (expand)</title>
<ellipse fill="none" stroke="black" cx="1035.5" cy="-378" rx="150.27" ry="18"/>
<text text-anchor="middle" x="1035.5" y="-374.3" font-family="Times,serif" font-size="14.00">[root] output.kibana_endpoint (expand)</text>
</g>
<!-- [root] output.kibana_endpoint (expand)&#45;&gt;[root] aws_elasticsearch_domain.es (expand) -->
<g id="edge30" class="edge">
<title>[root] output.kibana_endpoint (expand)&#45;&gt;[root] aws_elasticsearch_domain.es (expand)</title>
<path fill="none" stroke="black" d="M992.83,-360.71C924.97,-334.81 792.55,-284.26 717.96,-255.79"/>
<polygon fill="black" stroke="black" points="718.86,-252.39 708.27,-252.09 716.37,-258.93 718.86,-252.39"/>
</g>
<!-- [root] provider[&quot;registry.terraform.io/hashicorp/aws&quot;] (close) -->
<g id="node31" class="node">
<title>[root] provider[&quot;registry.terraform.io/hashicorp/aws&quot;] (close)</title>
<ellipse fill="none" stroke="black" cx="1431.5" cy="-378" rx="227.46" ry="18"/>
<text text-anchor="middle" x="1431.5" y="-374.3" font-family="Times,serif" font-size="14.00">[root] provider[&quot;registry.terraform.io/hashicorp/aws&quot;] (close)</text>
</g>
<!-- [root] provider[&quot;registry.terraform.io/hashicorp/aws&quot;] (close)&#45;&gt;[root] aws_cloudwatch_metric_alarm.unavailable (expand) -->
<g id="edge31" class="edge">
<title>[root] provider[&quot;registry.terraform.io/hashicorp/aws&quot;] (close)&#45;&gt;[root] aws_cloudwatch_metric_alarm.unavailable (expand)</title>
<path fill="none" stroke="black" d="M1431.5,-359.7C1431.5,-351.98 1431.5,-342.71 1431.5,-334.11"/>
<polygon fill="black" stroke="black" points="1435,-334.1 1431.5,-324.1 1428,-334.1 1435,-334.1"/>
</g>
<!-- [root] provider[&quot;registry.terraform.io/hashicorp/aws&quot;] (close)&#45;&gt;[root] aws_elasticsearch_domain_policy.main (expand) -->
<g id="edge32" class="edge">
<title>[root] provider[&quot;registry.terraform.io/hashicorp/aws&quot;] (close)&#45;&gt;[root] aws_elasticsearch_domain_policy.main (expand)</title>
<path fill="none" stroke="black" d="M1356.48,-360.94C1308.13,-350.59 1245.01,-337.08 1194.04,-326.17"/>
<polygon fill="black" stroke="black" points="1194.53,-322.69 1184.02,-324.02 1193.07,-329.54 1194.53,-322.69"/>
</g>
<!-- [root] provider[&quot;registry.terraform.io/hashicorp/aws&quot;] (close)&#45;&gt;[root] aws_sns_topic_policy.default (expand) -->
<g id="edge33" class="edge">
<title>[root] provider[&quot;registry.terraform.io/hashicorp/aws&quot;] (close)&#45;&gt;[root] aws_sns_topic_policy.default (expand)</title>
<path fill="none" stroke="black" d="M1546.32,-362.45C1670.83,-344.04 1857.6,-307.84 1900.5,-252 1910.25,-239.31 1911.08,-228.01 1900.5,-216 1879.73,-192.42 1698.16,-176.58 1581.56,-168.74"/>
<polygon fill="black" stroke="black" points="1581.74,-165.24 1571.53,-168.07 1581.28,-172.23 1581.74,-165.24"/>
</g>
<!-- [root] root -->
<g id="node32" class="node">
<title>[root] root</title>
<ellipse fill="none" stroke="black" cx="603.5" cy="-450" rx="47.39" ry="18"/>
<text text-anchor="middle" x="603.5" y="-446.3" font-family="Times,serif" font-size="14.00">[root] root</text>
</g>
<!-- [root] root&#45;&gt;[root] output.arn (expand) -->
<g id="edge34" class="edge">
<title>[root] root&#45;&gt;[root] output.arn (expand)</title>
<path fill="none" stroke="black" d="M557.14,-446.04C482.17,-440.42 338.64,-426 298.5,-396 278.4,-380.97 266.93,-354.25 260.77,-333.99"/>
<polygon fill="black" stroke="black" points="264.07,-332.78 258.02,-324.08 257.33,-334.66 264.07,-332.78"/>
</g>
<!-- [root] root&#45;&gt;[root] output.domain_id (expand) -->
<g id="edge35" class="edge">
<title>[root] root&#45;&gt;[root] output.domain_id (expand)</title>
<path fill="none" stroke="black" d="M556.23,-447.5C481.68,-444.03 342.13,-432.68 311.5,-396 278.08,-355.97 340.02,-333.06 402.58,-320.54"/>
<polygon fill="black" stroke="black" points="403.45,-323.93 412.62,-318.62 402.14,-317.06 403.45,-323.93"/>
</g>
<!-- [root] root&#45;&gt;[root] output.domain_name (expand) -->
<g id="edge36" class="edge">
<title>[root] root&#45;&gt;[root] output.domain_name (expand)</title>
<path fill="none" stroke="black" d="M575.98,-435.34C555.83,-425.34 528.12,-411.58 505.12,-400.16"/>
<polygon fill="black" stroke="black" points="506.43,-396.9 495.91,-395.59 503.31,-403.17 506.43,-396.9"/>
</g>
<!-- [root] root&#45;&gt;[root] output.endpoint (expand) -->
<g id="edge37" class="edge">
<title>[root] root&#45;&gt;[root] output.endpoint (expand)</title>
<path fill="none" stroke="black" d="M631.22,-435.34C651.74,-425.22 680.06,-411.26 703.37,-399.77"/>
<polygon fill="black" stroke="black" points="704.94,-402.9 712.36,-395.33 701.85,-396.62 704.94,-402.9"/>
</g>
<!-- [root] root&#45;&gt;[root] output.kibana_endpoint (expand) -->
<g id="edge38" class="edge">
<title>[root] root&#45;&gt;[root] output.kibana_endpoint (expand)</title>
<path fill="none" stroke="black" d="M646.5,-442.03C714.49,-431.02 848.46,-409.31 939.99,-394.48"/>
<polygon fill="black" stroke="black" points="940.79,-397.89 950.1,-392.84 939.67,-390.98 940.79,-397.89"/>
</g>
<!-- [root] root&#45;&gt;[root] provider[&quot;registry.terraform.io/hashicorp/aws&quot;] (close) -->
<g id="edge39" class="edge">
<title>[root] root&#45;&gt;[root] provider[&quot;registry.terraform.io/hashicorp/aws&quot;] (close)</title>
<path fill="none" stroke="black" d="M649.2,-445.14C765.85,-435.27 1079.05,-408.8 1271.92,-392.49"/>
<polygon fill="black" stroke="black" points="1272.48,-395.96 1282.15,-391.63 1271.89,-388.98 1272.48,-395.96"/>
</g>
</g>
</svg>
